<?xml version="1.0" standalone="no"?>
<!DOCTYPE svg PUBLIC "-//W3C//DTD SVG 20010904//EN"
 "http://www.w3.org/TR/2001/REC-SVG-20010904/DTD/svg10.dtd">
<svg version="1.0" xmlns="http://www.w3.org/2000/svg"
 width="44.000000pt" height="49.000000pt" viewBox="0 0 44.000000 49.000000"
 preserveAspectRatio="xMidYMid meet">

<g transform="translate(0.000000,49.000000) scale(0.100000,-0.100000)"
fill="#000000" stroke="none">
<path d="M166 459 c-14 -11 -30 -28 -36 -38 -8 -16 -5 -17 46 -8 36 6 73 6
105 0 27 -6 49 -7 49 -3 0 5 -13 22 -29 39 -36 38 -93 43 -135 10z"/>
<path d="M72 370 c-83 -51 -81 -203 3 -252 l30 -17 0 145 c0 79 0 144 0 144 0
0 -15 -9 -33 -20z"/>
<path d="M350 350 c4 -23 10 -43 13 -46 3 -3 22 -4 43 -2 l39 3 -41 43 c-52
53 -63 54 -54 2z"/>
<path d="M356 158 c-10 -38 -7 -58 8 -58 16 0 76 56 76 71 0 5 -17 9 -39 9
-32 0 -40 -4 -45 -22z"/>
<path d="M130 68 c0 -3 14 -18 31 -32 42 -35 96 -35 138 0 17 14 31 29 31 32
0 4 -45 7 -100 7 -55 0 -100 -3 -100 -7z"/>
</g>
</svg>
